<?xml version="1.0" encoding="UTF-8"?>
<svg id="_레이어_1" data-name="레이어 1" xmlns="http://www.w3.org/2000/svg" viewBox="0 0 600 1800">
  <defs>
    <style>
      .cls-1 {
        fill: none;
        stroke: #486639;
        stroke-miterlimit: 10;
        stroke-width: 1.97px;
      }
    </style>
  </defs>
  <path class="cls-1" d="M515.76,1595.62c-30.53,40.71-110.88,86.54-242.29,75.42-131.42-11.13-178.39-55.95-198.75-92.29s-9.1-79.94,2.42-98.69c15.96-25.98,54.12-64.94,115.01-92.2,30.77-13.78,57.74-26.92,74.45-41.63,20.18-17.75,26.92-35.93,26.92-35.93,0,0,2.64,19,11.66,23.99,15.03,8.31,25.13-6.4,25.13-6.4.52,4.59,2.36,15.69,26.19,17.92,23.84,2.23,31.83-10.26,31.83-10.26-4.4,18.8,6.43,38.08,32.25,56.73,25.82,18.65,88.35,60.17,105.72,91.72,17.81,32.37,11.19,82.66-10.54,111.64ZM515.76,1222.08c-30.53,40.71-110.88,86.54-242.29,75.42-131.42-11.13-178.39-55.95-198.75-92.29-20.36-36.34-9.1-79.94,2.42-98.69,15.96-25.98,54.12-64.94,115.01-92.2,30.77-13.78,57.74-26.92,74.45-41.63,20.18-17.75,26.92-35.93,26.92-35.93,0,0,2.64,19,11.66,23.99,15.03,8.31,25.13-6.4,25.13-6.4.52,4.59,2.36,15.69,26.19,17.92s31.83-10.26,31.83-10.26c-4.4,18.8,6.43,38.08,32.25,56.73s88.35,60.17,105.72,91.72c17.81,32.37,11.19,82.66-10.54,111.64ZM515.76,848.53c-30.53,40.71-110.88,86.54-242.29,75.42-131.42-11.13-178.39-55.95-198.75-92.29s-9.1-79.94,2.42-98.69c15.96-25.98,54.12-64.94,115.01-92.2,30.77-13.78,57.74-26.92,74.45-41.63,20.18-17.75,26.92-35.93,26.92-35.93,0,0,2.64,19,11.66,23.99,15.03,8.31,25.13-6.4,25.13-6.4.52,4.59,2.36,15.69,26.19,17.92,23.84,2.23,31.83-10.26,31.83-10.26-4.4,18.8,6.43,38.08,32.25,56.73s88.35,60.17,105.72,91.72c17.81,32.37,11.19,82.66-10.54,111.64ZM515.76,474.99c-30.53,40.71-110.88,86.54-242.29,75.42-131.42-11.13-178.39-55.95-198.75-92.29s-9.1-79.94,2.42-98.69c15.96-25.98,54.12-64.94,115.01-92.2,30.77-13.78,57.74-26.92,74.45-41.63,20.18-17.75,26.92-35.93,26.92-35.93,0,0,2.64,19,11.66,23.99,15.03,8.31,25.13-6.4,25.13-6.4.52,4.59,2.36,15.69,26.19,17.92,23.84,2.23,31.83-10.26,31.83-10.26-4.4,18.8,6.43,38.08,32.25,56.73s88.35,60.17,105.72,91.72c17.81,32.37,11.19,82.66-10.54,111.64Z"/>
</svg>