<?xml version="1.0" encoding="UTF-8"?>
<svg id="_레이어_1" data-name="레이어 1" xmlns="http://www.w3.org/2000/svg" viewBox="0 0 600 1800">
  <defs>
    <style>
      .cls-1 {
        fill: #aed185;
      }

      .cls-2 {
        stroke: #486639;
        stroke-miterlimit: 10;
        stroke-width: 4px;
      }

      .cls-2, .cls-3 {
        fill: #fff;
      }

      .cls-4 {
        fill: #5e8e4c;
      }

      .cls-5 {
        fill: #f1f8ec;
      }

      .cls-6 {
        fill: #486639;
      }

      .cls-7 {
        fill: #fefefe;
      }

      .cls-8 {
        fill: #f5fcf0;
      }

      .cls-9 {
        fill: #8fbc68;
      }

      .cls-10 {
        fill: #ffe7e3;
      }
    </style>
  </defs>
  <circle class="cls-7" cx="18.13" cy="1652.31" r="4.2"/>
  <g>
    <g>
      <path class="cls-4" d="M90.92,914.13c-8.49-3.43-20.12-13.12-17-23.29-1.56-.75-3.24.21-5.29.03-13.52-1.18-23-17.23-16.55-29.35s26.56-16.57,36.88-7.48c-.16-9.16,7.97-18.94,16.53-21.53,3.95-1.19,12.5-.92,16.46.21,14.06,4.02,19.18,18.94,10.94,30.92,7.53.6,13.61,3.77,16.69,10.99,8.25,19.39-9.06,34.16-27.01,24.57-.33,2.78-.78,5.43-2.16,7.92-.81,1.47-2.78,3.41-4.41,5.03-1.93,1.91-4.32,3.28-6.95,3.97h0c-2.2.58-4.49.67-6.72.25-3.62-.68-9.59-1.5-11.41-2.23ZM120.91,834.5c-11.74-3.03-24.25,1.62-28.82,13.42-1.35,3.48-1.13,6.7-1.54,10.25-7.43-8.57-20-8.18-29.3-2.92-18.36,10.39-5.8,36.63,11.77,33.11.99-.2,3.17-2.2,3.57-.75.13.47-1.71,6.51-.81,9.56,4.68,15.79,36.01,25.59,43.58,7.16,1.27-3.09.47-6.19,2.21-8.91,14.42,12.05,33.88-.16,26.55-18.89-2.27-5.8-5.43-9.15-11.76-10.21-2.62-.44-4.92.36-7.36-.14,1.24-2.84,3.99-5.87,5.04-8.65,3.78-10.02-3.28-20.48-13.14-23.02Z"/>
      <path class="cls-1" d="M129.01,866.18c2.44.5,4.74-.3,7.36.14,6.32,1.05,9.48,4.41,11.76,10.21,7.33,18.73-12.12,30.94-26.55,18.89-1.74,2.71-.94,5.82-2.21,8.91-7.57,18.43-38.9,8.63-43.58-7.16-.9-3.05.94-9.09.81-9.56-.4-1.45-2.59.55-3.57.75-17.57,3.52-30.14-22.72-11.77-33.11,9.29-5.26,21.87-5.65,29.3,2.92.41-3.54.19-6.77,1.54-10.25,4.58-11.8,17.08-16.45,28.82-13.42,9.86,2.54,16.92,13,13.14,23.02-1.05,2.78-3.8,5.81-5.04,8.65ZM83.56,875.67c2.56-2.68-1.7-3.07-4.18-3.36-.99-.12-3.68-.49-4.02.98l8.2,2.38ZM109.87,865.42c1.46.52,1.42-1.02,1.58-1.92.13-.79.75-5.22.63-5.47-2.06-4.41-4.15,6.7-2.21,7.39ZM104.08,888.43c-.69.21-1.13,6.99-.96,7.32,2.2,4.28,4.07-6,.96-7.32ZM118.72,881.21l7.17,2.19.65-2.12-7.17-2.19-.65,2.12Z"/>
      <path class="cls-4" d="M112.08,858.04c-2.06-4.41-4.15,6.7-2.21,7.39,1.46.52,1.42-1.02,1.58-1.92.13-.79.75-5.22.63-5.47Z"/>
      <path class="cls-4" d="M75.36,873.29l8.2,2.38c2.56-2.68-1.7-3.07-4.18-3.36-.99-.12-3.68-.49-4.02.98Z"/>
      <path class="cls-4" d="M103.12,895.74c2.2,4.28,4.07-6,.96-7.32-.69.21-1.13,6.99-.96,7.32Z"/>
      <rect class="cls-4" x="118.88" y="880.14" width="7.5" height="2.22" transform="translate(263.3 2.7) rotate(17.02)"/>
    </g>
    <g>
      <path class="cls-2" d="M491.16,566.63c.12-.25.08-.45.47-.43.3,2.27.86,1.42,2.03,2.03,1.02.54,1.74,2.06,2.93,2.81.33.21.74.18,1.08.39.74.46,1.67,1.64,2.48,1.42.32-.09.68-.48.93-.47.61.04.75,1.56,2.56.77,2.05-.89,2.93-2.24,3.93-4.17.21-.4.39-.68.31-1.14,2.63,1.16,3.64,3.68,6.94,3.39.69-.06,1.48-.12,2.05-.54.25-.19.37-.6.6-.76.85-.59,1.29-.07,1.62-1.57.15-.69.71-2.12.71-2.24.02-.59-.28-1.03-.14-1.77.11-.54.76-1.54,1.09-2.02.33.81-.41,2.55-.27,3.11.11.45.56.62.7.94.99,2.2,1.39,4.41,2.4,6.65.34.76,1.31,3.01,1.72,3.49.15.18.51.13.63.36.22.43.12,1.06.39,1.61s1.64,1.81,1.83,2.21c.4.85.17,1.42,1.05,2.34.44.46,2.64,2.74,2.84,3.17.36.75.06,1.34.77,2.25.6.77,1.9,1.09,2.04,1.25.45.52.75,2.28,1.23,2.71.18.16.45-.05.64.15.73.77.63,2.44,1.93,3.21s.49.42,1.34,1.45c.53.65,2.23,1.67,2.49,1.99.25.3.28.92.57,1.34.48.68,1.76,1.7,2.3,2.49.43.62.57,1.32.91,1.83s1.92,1.52,2.27,2.06c.4.61.47,1.61,1.16,2.43.41.48,1.25.49,1.44.84.31.59,0,1.53.77,2.02.24.15.72.13.79.2.14.16.13.86.37,1.25.17.28.63.23.93.62.38.51.34,1.22.67,1.69.34.5,1.04.37,1.25.63s.18.79.38,1.14c.42.74,1.25,1.32,1.56,2.1.24.61.21,1.35.53,1.86.2.32.8.3,1.07.67.23.33.22.81.52,1.18.28.34.75.34.82.42.06.07.06,1.07.45,1.62.14.19,1.32,1.52,1.51,1.71.17.17.56.11.74.41.2.34.34,2.44.86,3.05l.83.31c.28.51.23,1.66.37,2.05s.87.72,1.08,1.1c.12.21,0,.9.13,1.13.12.22.44.31.56.55.83,1.78.62,3.69,1.51,5.31.76,1.38.02,1.53.05,2.53,0,.29.42,2.68.51,3.05.13.55.75.98.8,1.28.04.26-.32.83-.33,1.29-.01.68.33,1.45.26,2.05-.07.55-.95.92-.76,1.99.09.54.71.76.91,1.24.57,1.37-.62,1.58-.64,1.89-.02.38.22.87.21,1.31-.01.8-.58,2.71-.53,3.72.07,1.43.45,3.09.25,4.58-.06.46-1.38,2.81-1.66,3.57-.5,1.35-.56,1.36-1.17,2.57-.82,1.66-1.14,3.7-1.92,5.4-.41.89-1.31,1.79-1.72,2.55-.43.8-.43,2.02-.87,2.78-.33.57-1.25,1.12-1.56,1.52-.25.32-.23.95-.44,1.31-.86,1.5-4.77,4.92-6.17,6.22-1.61,1.49-3.38,1.79-5.05,3.11-.39.31-.64.91-1.13,1.24-1.47.97-3.53,1.54-5.07,2.16-.76.31-1.9,1.31-2.57,1.57-.62.24-1.15.04-1.62.2-.43.15-.69.59-1.05.79-2.04,1.09-3.19-.08-5.01.32-1.19.27-1.57.96-3.17,1.07-2.03.14-1.6.36-3.11.72-.61.15-1.71-.01-2.34.1-1.63.29-1.57.96-3.41.43-.76-.22-1.32.5-1.96.56-.48.05-.91-.35-1.28-.32s-.69.34-1.27.37c-.73.03-1.95-.55-2.55-.48-.5.06-.75.82-1.39.79-.16,0-.39-.6-.9-.71-.37-.08-.75.24-1.18.25-.53,0-1.38-.5-2.1-.44-.88.08-1.21.8-1.79.88-.79.12-1.54-.56-2.15-.59-1.5-.09-3.39.38-4.84.54-.42.05-1.45-.49-1.86-.46-.32.03-.62.36-.91.33-.24-.02-.33-.42-.54-.5-2.26-.95-4.11.3-5.8-.15-.3-.08-.39-.41-.66-.54-1.15-.54-5.23-1.46-6.62-1.68-.51-.08-1.37.1-1.68-.02-.67-.26-.37-.96-2.4-1.41-1.11-.24-1.22-.07-2.09-.17-.51-.06-1.72-1.21-2.52-1.24-.52-.02-.85.47-1.14.4-.36-.09-1.63-1.1-2.28-1.32-1.41-.49-3.09-.88-4.54-1.27-.37-.1-.88.01-1.23-.12-.3-.12-.83-.91-1.44-1.14s-1.91-.32-2.47-.6c-.68-.33-.87-1.44-2.09-1.6-1.42-.18-.8-.22-1.98-.8-.35-.17-2.83-1.11-2.94-1.24-.13-.15-.08-.55-.21-.78-.31-.56-2.37-1.34-3.03-1.72s-1.33-.71-1.96-1.07c-.49-.28-.64-1.08-1.03-1.42-.2-.18-.57-.18-.75-.37-.26-.28-.38-1.05-.71-1.32-.3-.25-.81,0-1.07-.29-.74-.82-2.06-3.12-3.05-3.54-.43-.18-.75-.05-1.27-.36-.6-.36-1.72-1.93-2.41-2.57-1.15-1.07-.86-.81-1.77-2.05-.25-.34-1.04-.62-1.36-.94-.75-.76-.75-1.42-1.23-2.11-.26-.38-.81-.52-.98-.78-.37-.57-.65-1.94-1.07-2.55-.28-.4-.8-.36-1.14-.79-.48-.61-.58-1.64-.91-2.3-.58-1.15-1.31-2.33-1.93-3.5-.19-.36-.73-.45-.84-.74s.08-.64,0-.95c-.1-.4-.92-1.37-1.11-2.02-.78-2.65-1.53-5.24-1.95-8-.06-.41.06-.81,0-1.18-.09-.64-.57-1.26-.54-2.09.02-.57.73-.97.66-1.75-.05-.55-.85-1.44-.91-2.17-.07-.77.32-2.42.36-3.25.1-2.24.18-4.31.44-6.57.2-1.73.48-1.98.98-3.56,1.13-3.58,1.23-7.44,2.36-10.9s2.4-6.76,4.36-9.81c.5-.78,1.23-1.34,1.73-2.17.16-.27.22-.86.28-.91.15-.13.55-.08.76-.22.88-.56.6-1.02,1.16-1.72.69-.87,1.9-1.37,2.74-1.96.44-.31.57-1.15.78-1.33.24-.21.7.13,1.15-.17s1.09-1.79,1.63-2.25c.85-.72,1.62-.51,2.32-.88.64-.34.92-1.06,1.41-1.39.9-.6,1.9-.14,2.74-.9.17-.16.18-.61.33-.64.26-.06.62.45,1.6-.24,1.51-1.06,4.7-2.36,6.64-2.92.33-.09.7.1,1.12-.04.37-.12.67-.62,1.13-.75.77-.22,2.42-.3,3.21-.58,1.01-.36,2.48-1.42,3.35-1.71.61-.2,1.29.11,1.94-.13.4-.14.46-.55.73-.68.51-.25,1.15-.12,1.76-.44.42-.22.88-1.14,1.12-1.23.32-.12.75.23,1.1.08.43-.18,2.75-1.29,3.1-1.52.45-.29,1.09-1.37,1.9-1.72,1.4-.6,2.78-1.39,4.05-2.37,3.48-2.68,6.36-6.35,8.08-10.39.22-.52.47-1.15.67-1.65.3-.73.44-1.63.75-2.27Z"/>
      <path class="cls-6" d="M479.19,652.77c-.54.68-.95.8-.82,1.9s.75,1.96,1.06,2.8c.33.89.33,1.76.97,2.69.86,1.25.65.6,1.27,2.27.57,1.56,1.99,1.36,3.07,1.9.52.26,1.02,1.31,1.38,1.41.58.15,2.15.18,2.87.26,3.74.44,5.55.14,9.02-1.58,2.3-1.14,3.68-3.58,4.65-5.82.19-.45.97-.97.59-1.86-.18-.41-.6-.36-.72-.51-.33-.37-.09-1.16-.92-1.08-1.02.1-2.73,1.21-2.86,2.31-.04.32.17.74.08.99-.03.07-.91.85-1.09,1.09-.26.34-.45,1.1-.84,1.36-.68.44-1.82.54-2.43,1.46-1.05-1.09-1.64-.12-2.58.07s-4.42-1.03-5.04-1.74c-.17-.2-.12-.64-.34-.75-.35-.18-1.1.14-1.31-.07-.65-.67-.7-1.7-1-2.36-.22-.48-1.28-.87-1.64-2.24-.27-1.05.26-2.58-.74-3.24-.55-.36-1.37-.31-1.98-.08-.56.21-.4.54-.63.83Z"/>
      <path class="cls-6" d="M534.17,607.4c.32.21.47.73.94.95,1.94.92,3.41-.45,2.59-2.44-.06-.15-1.21-1.8-1.3-1.87-.73-.51-1.82-1.06-2.54-1.68-.22-.19-.38-.78-.68-.96s-.75-.03-.92-.15c-.35-.24-.42-1.68-.75-2.17s-.89-.32-1.16-.58c-.48-.48-1.15-2.55-1.8-3.14-.36-.33-.79-.2-.9-.29-.07-.06-.87-1.43-.89-1.51-.16-.61.21-1.03-.27-1.75-.31-.47-1.81-1.12-2.02-1.82-.11-.38.04-1.02-.16-1.56-.17-.46-.72-.58-.93-1.08-.28-.67-.62-2.17-.9-3.03-.47-1.51-.33-3.16-2.01-3.85s-2.87-.08-3.2,1.75c-.41,2.28,1.39,2.33,1.77,3.37.12.34-.02.69.09,1.04.16.53.7.84.86,1.18,1.07,2.39,2.18,4.82,3.19,7.21.25.6.09,1.41.75,1.81.42.25,1.25.11,1.59.64.26.4.16.87.33,1.2.15.28.56.23.72.4.08.08.13.83.36,1.18.31.47.98.68,1.38,1.17.71.88.67,1.02,1.55,1.88,1.76,1.73,2.19,2.69,4.31,4.09Z"/>
      <path class="cls-6" d="M507.02,587.29c.17.21.11.7.22,1.01.09.24.38.42.4.54.03.17-.32,1.32-.19,1.83.23.93.95,2.62,1.16,3.58.11.53-.19,1.15-.1,1.6.07.34.43.54.47.87.05.36-.22.86-.13,1.44.2,1.3,1.21,2,1.54,3.34.13.51-.27,1.21.43,1.6,1.08.61,2.68.39,3.54-.51.8-.83.15-1.33.02-2.18-.1-.63.23-1.12-.27-1.71-.72-.85-.23-.36-.44-1.34-.08-.4-.42-.77-.53-1.17-.65-2.22-1.23-5.26-1.44-7.62-.11-1.2-.05-1.8-.67-3-.12-.24-1.8-1.81-2.03-1.93-1.54-.77-4.03,1.18-2.95,2.98.36.6.86.54.95.65Z"/>
      <path class="cls-6" d="M476.13,638.32c-.18.47-.56,1.86-.49,2.3.09.57.55.79.71,1.17.19.46.13,1.32.47,1.96.19.35,2.19,2.4,2.56,2.61.5.29.94.45,1.53.24.41-.15.49-.59.71-.67s.55.09.78.02c1.3-.37,3.13-2.16,3.43-3.5.23-1.03-.32-1.6-.35-2.45s.84-1.39-.17-2.18c-.37-.29-.83-.26-1.27-.6-1.22-.95-.47-1.91-2.69-1.95-1.45-.03-3.35.27-4.38,1.38-.4.43-.23.85-.42,1.24-.1.22-.39.35-.43.45Z"/>
      <path class="cls-6" d="M494.86,598.96c-.05.14-.9.69-1.06,1.03-.19.39-.11,1.01-.29,1.49-.22.58-.86,1.04-1.04,1.64-.84,2.8,2.93,2.34,4.45,1.14.26-.21,1.37-1.63,1.43-1.87.1-.39-.06-.79,0-1.19.12-.75.55-2.2.59-2.83.02-.44-.33-.72-.31-1.05.01-.25.96-1.4,1.11-2.11.34-1.66-.06-5.51-.5-7.15-.12-.47-1.77-1.21-2.18-1.24-.77-.06-1.73.86-1.84,1.6-.11.82.3,1.23.35,1.81.04.46-.3.85-.31,1.28-.01.83.42,1.79.39,2.66-.02.53-.44,1.09-.54,1.66s-.18,2.94-.25,3.14Z"/>
      <path class="cls-6" d="M504.81,639.92c-.72.11-2.29,1.95-3.17,2.26-.84.94-.02,1.71.12,2.62.1.65-.19,1.81-.01,2.39.11.37.57.51.76.86.41.74.61,2.22,1.71,2.37,1.53.2,5.5-1.06,5.86-2.71s.63-3.98-.13-5.55c-.1-.21-1.48-2.22-1.59-2.3-.98-.81-2.01.28-2.51.34-.21.02-.61-.33-1.04-.26Z"/>
      <path class="cls-6" d="M482.28,591.33c-.06.12-1.18.85-1.42,1.28-.04,1.95-1.74,3.14-2.47,4.88-.29.25-1.25-.37-1.95.81-.13.23-.13.73-.2.79-.17.14-.68.09-.98.23-.52.26-.91,1.51-1.19,2.04-.33.62-1,.77-.84,1.93s2.55.84,3.35.37c.27-.16,3.41-3.04,3.65-3.35.31-.39.36-.99.67-1.39.37-.47,1.32-.93,1.65-1.37.27-.35.26-.86.58-1.29.39-.52,1.2-.87,1.56-1.44.39-.61.51-1.76.81-2.49.42-1.02,1.23-1.17.82-2.66-.6-2.2-2.02-2.31-3.52-.8-.8.81-.29,1.95-.53,2.43Z"/>
      <path class="cls-6" d="M513.11,631.65c.38.27.78-.1,1.01-.08.27.03,1.14,1.16,2.23.69,1.81-.78-.02-2.39-.28-3-.14-.33.03-.65-.05-.91-.28-.97-.88-.73-1.41-1.07-.99-.65-1.09-1.4-2.71-1.69-.51-.09-1.23-.18-1.77-.26-1.1-.17-2.6.43-2.98,1.54-.07.21-.45,1.9-.46,2.06-.06,1.96,1.72,1.24,2.82,1.18.38-.02.77.18,1.08.16.52-.03.88-.56,1.32-.44.69.19.71,1.31,1.19,1.8Z"/>
      <path class="cls-6" d="M480.45,622.01c-.56.46-1.65-.31-1.96,1.42-.42,2.38,3.15,2.93,4.76,2.14.2,1.09,2.56,1.83,3.36,1.26.31-.22.32-.58.52-.82.66-.78,1.2-.49.59-2.05-.52-1.35-2.54-2.12-3.58-3.1-1.23-.21-2,.75-3.25.34-.37.16-.33.72-.44.81Z"/>
    </g>
    <g>
      <path class="cls-1" d="M106.5,1210.89c2.29,1.66,1.56,12.04,2.41,13.59.69,1.25,5.42,1.93,6.71,2.78,5.04,3.33,3.66,14.96-.66,19.19-1.48,1.45-4.78,1.95-9.58,2.92-.24.05-.55,4.52-1.22,6.22-3.44,8.8-11.39,11.16-19.38,6.47-6.28-3.68-4.41-4.27-5.01-9.97-1.12-10.58-8.53,5.93-9.26,6.32-4.62,2.53-4.62-3.55-3.58-7.07.64-2.17,7.08-5.9,5.79-7.68-9.48-1.91-9.03-18.85.73-20.75,2.9-.57,8.54.47,10.3-.69,2.19-1.45.29-8.39,7.39-11.59,1.29-.58,5.79-1.81,7.08-1.79.65.01,7.93,1.79,8.27,2.04ZM88.72,1239.66v14.98c10.48,3.72,3.94-8.36,6.14-11.84s11.29,2.59,13.81-2.88c4.29-9.31-9.14-2.34-11.5-7.26-1.38-2.87,5.14-12.36,1.03-15.99-11.65,1.14-1.12,17.99-11.94,16.01-1.97-.36-11.6-7.77-13.37-2.36-3.58,10.92,10.04,5.61,15.84,9.35Z"/>
      <path class="cls-5" d="M88.72,1239.66v14.98c10.48,3.72,3.94-8.36,6.14-11.84,2.12-3.37,11.29,2.59,13.81-2.88,4.29-9.31-9.14-2.34-11.5-7.26-1.38-2.87,5.14-12.36,1.03-15.99-11.65,1.14-1.12,17.99-11.94,16.01-1.97-.36-11.6-7.77-13.37-2.36-3.58,10.92,10.04,5.61,15.84,9.35Z"/>
    </g>
    <g>
      <path class="cls-9" d="M136.44,1029.08c-.48-9.77-10.37-24.5-19.02-29.29-1.34-.74-6.37-2.17-7.84-2.27-3.72-.25-9.83,3.58-12.28,6.32-1.72,1.93-1.05,5.14-5.54,4.71-.14-1.43-.4-2.72-.73-4.08-.2-.84-3.46-4.36-4.16-5.23-.58-.71-4.11-5.06-4.43-5.18-2-.78-8.44-.31-10.92-.04-4.81.53-11.26,2.78-15.11,5.7-1.14.86-6.99,7.44-7.61,8.58-3.55,6.44-2.71,12.66,1.09,18.68,2.43,3.85,7.34,5.21,8.01,6.27,1.99,3.14-1.3,2.33-3.27,3.5-2.18,1.29-12.78,7.87-13.53,9.17-3.35,5.76-2.67,14.13.06,20.02,3.06,6.62,16.95,18.18,24.23,18.65,4.29.28,6.36-2.41,10.55-1.76.12,8.46,4.78,21.55,15.13,20.16,2.34-.31,5.36-1.83,5.09-4.56-.04-.4-6.7-6.28-6.77-6.36-.51-.7-3.7-7.22-3.36-7.56,1.92-.43,3.05,1.33,4.66,1.64,1.56.29,18.2-2.4,21.45-2.89,1.4-.21,4.56-1.98,5.78-2.55.49-.23,7.44-6.38,8.07-7.08,2.92-3.22,6.09-10.46,5.49-14.8-.2-1.43-1.52-3.62-1.94-4.35-.14-.25-3.9-3.66-4.22-3.88-1.56-1.05-7.08-2.78-7.36-3.07-1.54-1.65,4.59-2.73,5.61-3.2,2.22-1.02,4.08-2.33,6.15-3.51.42-.24,1.76.15,2.97-.77,1.39-1.06,3.83-3.88,3.75-6.79.13-1.25.06-2.91,0-4.2ZM122.99,1035.8c-1.32.32-7.56,3.24-8.4,3.36-3.19.44-10.53,1.84-10.13,6.25.32,3.54,4.5,3.36,6.39,4.62,2.22,1.49,1.57,3.15,5.42,5.08.59.3,2.24,2.15,3.36,2.52,7.3,2.42.88,13.26-6.72,16.8-6.09,2.84-11.77,4.3-18.87,4.14-4.58-.1-4.98-8.15-6.45-11.85-.28-.7-1.21-.64-1.5-1.35-.77-1.88-1.4-8.86-3.97-9.3-5.44-.93-5.41,6.93-6.39,9.35-.47,1.16-1.64,1.78-2.11,2.93-2.54,6.26-1.28,9.74-10.54,7.73-.53-.12-7.61-5.76-8.61-6.66-4.49-4.1-11.67-11.88-8.39-18.52,1.13-2.29,11.45-7.64,14.1-8.57,2.24-.78,11.6-1.28,11.6-5.27,0-3.56-17.42-9.59-19.08-13.29-3.35-7.47-2.29-10.79,3.02-16.12,5.65-5.68,14.58-11.1,22.98-8.63,3.58,1.05,6.77,9.57,7.27,12.9.61,4.12-1.52,9.26,3.43,11.69,4.74,2.32,3.86-3.02,5.12-5.59,1.28-2.61,8.23-10.82,10.65-12.4,6.77-4.41,12.96,3.03,16.2,5.59,2.46,4.6,5.75,8.39,7.24,13.1.22.69,1.1,3.65,1.12,3.94.42,4.99-2.37,6.5-6.72,7.56Z"/>
      <path class="cls-8" d="M122.99,1035.8c-1.32.32-7.56,3.24-8.4,3.36-3.19.44-10.53,1.84-10.13,6.25.32,3.54,4.5,3.36,6.39,4.62,2.22,1.49,1.57,3.15,5.42,5.08.59.3,2.24,2.15,3.36,2.52,7.3,2.42.88,13.26-6.72,16.8-6.09,2.84-11.77,4.3-18.87,4.14-4.58-.1-4.98-8.15-6.45-11.85-.28-.7-1.21-.64-1.5-1.35-.77-1.88-1.4-8.86-3.97-9.3-5.44-.93-5.41,6.93-6.39,9.35-.47,1.16-1.64,1.78-2.11,2.93-2.54,6.26-1.28,9.74-10.54,7.73-.53-.12-7.61-5.76-8.61-6.66-4.49-4.1-11.67-11.88-8.39-18.52,1.13-2.29,11.45-7.64,14.1-8.57,2.24-.78,11.6-1.28,11.6-5.27,0-3.56-17.42-9.59-19.08-13.29-3.35-7.47-2.29-10.79,3.02-16.12,5.65-5.68,14.58-11.1,22.98-8.63,3.58,1.05,6.77,9.57,7.27,12.9.61,4.12-1.52,9.26,3.43,11.69,4.74,2.32,3.86-3.02,5.12-5.59,1.28-2.61,8.23-10.82,10.65-12.4,6.77-4.41,12.96,3.03,16.2,5.59,2.46,4.6,5.75,8.39,7.24,13.1.22.69,1.1,3.65,1.12,3.94.42,4.99-2.37,6.5-6.72,7.56Z"/>
    </g>
    <g>
      <path class="cls-9" d="M440.85,1643.7c-.09,3.45,2.8,6.82,4.46,8.07,1.45,1.09,3.04.63,3.54.92,2.47,1.4,4.68,2.95,7.32,4.17,1.21.56,8.5,1.84,6.67,3.8-.32.35-6.89,2.4-8.74,3.65-.38.25-4.84,4.31-5.01,4.61-.5.87-2.07,3.48-2.31,5.17-.71,5.16,3.06,13.77,6.52,17.59.76.84,9.02,8.15,9.6,8.42,1.45.68,5.21,2.78,6.87,3.03,3.86.59,23.64,3.79,25.5,3.44,1.92-.36,3.26-2.46,5.54-1.95,3.61-3.97,7.24-15.22,6.64-14.39-.07.1,2.17,8.58,5.35,12.38,3.17,1.45,7.44,2.42,12.54,2.09,8.66-.56,25.17-14.31,28.81-22.18,3.24-7.01,4.05-16.96.07-23.8-.9-1.54-13.5-9.36-16.08-10.9-2.35-1.39-6.26-.43-3.89-4.16.8-1.26,6.64-2.88,9.53-7.46,4.51-7.15,5.52-14.55,1.29-22.2-.75-1.36-7.7-9.17-9.05-10.2-4.59-3.47-12.24-6.15-17.97-6.78-2.95-.32-10.6-.88-12.98.05-.38.15-4.58,5.32-5.27,6.16-.84,1.03-4.7,5.21-4.95,6.22-.39,1.62-.7,3.15-.87,4.85-5.34.52-4.54-3.3-6.58-5.6-2.91-3.26-10.17-7.82-14.59-7.52-1.75.12-7.74,1.82-9.33,2.7-10.29,5.7-22.04,23.21-22.61,34.82-.08,1.53-.16,3.51,0,4.99ZM448.85,1637.7c.03-.35,1.08-3.86,1.34-4.69,1.77-5.61,5.68-10.12,8.6-15.58,3.85-3.04,11.21-11.89,19.25-6.65,2.88,1.88,11.14,11.64,12.66,14.74,1.5,3.06.44,9.41,6.08,6.65,5.89-2.89,3.35-8.99,4.08-13.89.59-3.96,4.39-14.09,8.64-15.33,9.98-2.93,20.6,3.51,27.32,10.27,6.31,6.34,7.57,10.28,3.59,19.16-1.97,4.4-22.68,11.57-22.68,15.8,0,4.74,11.12,5.33,13.79,6.26,3.16,1.1,15.43,7.47,16.77,10.19,3.9,7.89-4.63,17.15-9.98,22.02-1.18,1.08-9.6,7.79-10.24,7.92-11.01,2.39-9.51-1.74-12.53-9.19-.56-1.37-1.95-2.1-2.51-3.49-1.16-2.87-1.13-12.22-7.59-11.11-3.06.52-3.81,8.82-4.72,11.06-.35.85-1.45.78-1.78,1.61-1.74,4.4-2.22,13.96-7.67,14.08-8.44.19-15.19-1.55-22.44-4.92-9.04-4.21-16.68-17.09-7.99-19.97,1.33-.44,3.3-2.64,4-3,4.57-2.3,3.8-4.28,6.44-6.04,2.25-1.5,7.21-1.29,7.59-5.5.47-5.24-8.24-6.91-12.04-7.43-1-.14-8.43-3.61-9.99-3.99-5.18-1.26-8.49-3.06-7.99-8.99Z"/>
      <path class="cls-8" d="M448.85,1637.7c.03-.35,1.08-3.86,1.34-4.69,1.77-5.61,5.68-10.12,8.6-15.58,3.85-3.04,11.21-11.89,19.25-6.65,2.88,1.88,11.14,11.64,12.66,14.74,1.5,3.06.44,9.41,6.08,6.65,5.89-2.89,3.35-8.99,4.08-13.89.59-3.96,4.39-14.09,8.64-15.33,9.98-2.93,20.6,3.51,27.32,10.27,6.31,6.34,7.57,10.28,3.59,19.16-1.97,4.4-22.68,11.57-22.68,15.8,0,4.74,11.12,5.33,13.79,6.26,3.16,1.1,15.43,7.47,16.77,10.19,3.9,7.89-4.63,17.15-9.98,22.02-1.18,1.08-9.6,7.79-10.24,7.92-11.01,2.39-9.51-1.74-12.53-9.19-.56-1.37-1.95-2.1-2.51-3.49-1.16-2.87-1.13-12.22-7.59-11.11-3.06.52-3.81,8.82-4.72,11.06-.35.85-1.45.78-1.78,1.61-1.74,4.4-2.22,13.96-7.67,14.08-8.44.19-15.19-1.55-22.44-4.92-9.04-4.21-16.68-17.09-7.99-19.97,1.33-.44,3.3-2.64,4-3,4.57-2.3,3.8-4.28,6.44-6.04,2.25-1.5,7.21-1.29,7.59-5.5.47-5.24-8.24-6.91-12.04-7.43-1-.14-8.43-3.61-9.99-3.99-5.18-1.26-8.49-3.06-7.99-8.99Z"/>
    </g>
    <g>
      <path class="cls-9" d="M42.58,1564.17c1.84.32,3.87-.96,4.67-1.75.7-.69.58-1.58.77-1.82.94-1.21,1.95-2.27,2.81-3.59.39-.6,1.65-4.41,2.56-3.27.16.2.74,3.88,1.27,4.97.11.22,1.93,2.93,2.07,3.05.42.34,1.7,1.38,2.59,1.64,2.71.79,7.61-.55,9.93-2.11.51-.34,5.07-4.19,5.26-4.48.48-.72,1.9-2.57,2.16-3.44.62-2.02,3.88-12.36,3.84-13.38-.04-1.05-1.06-1.94-.61-3.12-1.84-2.24-7.58-5.07-7.18-4.68.05.05,4.76-.49,7.05-1.89,1.02-1.58,1.88-3.79,2.11-6.55.38-4.68-5.68-14.6-9.61-17.16-3.5-2.29-8.76-3.5-12.73-1.91-.89.36-6.07,6.49-7.1,7.75-.93,1.15-.72,3.32-2.53,1.76-.61-.53-1.02-3.78-3.24-5.68-3.47-2.98-7.35-4.1-11.78-2.44-.78.29-5.52,3.4-6.17,4.04-2.22,2.18-4.26,6.07-5.04,9.09-.41,1.55-1.3,5.61-1,6.95.05.21,2.49,2.87,2.88,3.31.48.53,2.42,2.93,2.94,3.14.84.34,1.63.62,2.53.85-.14,2.9-2.12,2.17-3.51,3.08-1.97,1.3-4.98,4.83-5.17,7.22-.07.95.37,4.28.71,5.2,2.24,5.95,10.69,13.62,16.86,14.84.82.16,1.87.36,2.67.39ZM40,1559.42c-.18-.04-1.98-.88-2.4-1.08-2.86-1.39-4.97-3.83-7.66-5.83-1.33-2.3-5.49-6.93-2.04-10.83,1.23-1.39,7.1-5.05,8.89-5.62,1.76-.56,5.07.5,4.04-2.73-1.08-3.38-4.55-2.5-7.12-3.28-2.07-.63-7.2-3.45-7.53-5.83-.78-5.57,3.5-10.75,7.64-13.81,3.89-2.88,6.1-3.24,10.54-.41,2.2,1.4,4.41,13.05,6.68,13.38,2.54.38,3.73-5.53,4.44-6.89.84-1.6,5.21-7.67,6.77-8.17,4.53-1.46,8.82,3.83,11,7.07.48.72,3.41,5.75,3.44,6.1.42,6.08-1.68,4.95-5.9,5.98-.78.19-1.28.88-2.06,1.07-1.63.39-6.63-.36-6.54,3.19.04,1.68,4.42,2.73,5.55,3.4.43.25.3.84.72,1.08,2.22,1.28,7.3,2.29,6.94,5.21-.56,4.53-2.02,8.01-4.4,11.62-2.96,4.51-10.46,7.58-11.32,2.71-.13-.75-1.16-1.97-1.29-2.37-.87-2.63-1.99-2.37-2.73-3.92-.63-1.32-.12-3.96-2.35-4.5-2.77-.67-4.34,3.87-4.93,5.86-.15.53-2.6,4.23-2.92,5.03-1.08,2.67-2.3,4.3-5.44,3.57Z"/>
      <path class="cls-8" d="M40,1559.42c-.18-.04-1.98-.88-2.4-1.08-2.86-1.39-4.97-3.83-7.66-5.83-1.33-2.3-5.49-6.93-2.04-10.83,1.23-1.39,7.1-5.05,8.89-5.62,1.76-.56,5.07.5,4.04-2.73-1.08-3.38-4.55-2.5-7.12-3.28-2.07-.63-7.2-3.45-7.53-5.83-.78-5.57,3.5-10.75,7.64-13.81,3.89-2.88,6.1-3.24,10.54-.41,2.2,1.4,4.41,13.05,6.68,13.38,2.54.38,3.73-5.53,4.44-6.89.84-1.6,5.21-7.67,6.77-8.17,4.53-1.46,8.82,3.83,11,7.07.48.72,3.41,5.75,3.44,6.1.42,6.08-1.68,4.95-5.9,5.98-.78.19-1.28.88-2.06,1.07-1.63.39-6.63-.36-6.54,3.19.04,1.68,4.42,2.73,5.55,3.4.43.25.3.84.72,1.08,2.22,1.28,7.3,2.29,6.94,5.21-.56,4.53-2.02,8.01-4.4,11.62-2.96,4.51-10.46,7.58-11.32,2.71-.13-.75-1.16-1.97-1.29-2.37-.87-2.63-1.99-2.37-2.73-3.92-.63-1.32-.12-3.96-2.35-4.5-2.77-.67-4.34,3.87-4.93,5.86-.15.53-2.6,4.23-2.92,5.03-1.08,2.67-2.3,4.3-5.44,3.57Z"/>
    </g>
    <g>
      <path class="cls-9" d="M85.94,1666.74c3.33-.92,5.7-4.67,6.41-6.62.62-1.7-.28-3.09-.16-3.65.62-2.77,1.46-5.34,1.85-8.22.18-1.32-.72-8.67,1.69-7.49.43.21,4.31,5.89,6.05,7.29.35.29,5.54,3.37,5.87,3.44.97.22,3.93.97,5.62.69,5.14-.83,12.27-6.95,14.92-11.38.58-.97,5.15-11.01,5.24-11.64.22-1.59,1.13-5.8.89-7.46-.57-3.86-3.29-23.71-4.17-25.39-.91-1.73-3.3-2.4-3.48-4.73-4.85-2.29-16.68-2.47-15.71-2.14.12.04,7.57-4.59,10.28-8.74.46-3.46.14-7.83-1.67-12.61-3.07-8.12-21.04-19.88-29.63-21.07-7.65-1.05-17.4,1.09-22.78,6.89-1.21,1.31-5.01,15.64-5.72,18.57-.65,2.66,1.42,6.11-2.84,4.94-1.44-.4-4.69-5.5-9.92-6.93-8.16-2.22-15.53-1.02-21.61,5.26-1.08,1.11-6.52,10.04-7.11,11.64-1.98,5.4-2.3,13.51-1.23,19.17.55,2.92,2.26,10.39,3.84,12.4.25.32,6.43,2.83,7.43,3.24,1.23.5,6.36,2.98,7.39,2.91,1.66-.1,3.22-.25,4.9-.59,2.06,4.95-1.83,5.3-3.43,7.93-2.27,3.73-4.5,12.01-2.92,16.15.63,1.64,4,6.87,5.31,8.13,8.46,8.17,28.64,14.29,39.91,11.44,1.49-.38,3.4-.88,4.77-1.46ZM77.88,1660.84c-.34.07-4.01.1-4.87.09-5.88-.05-11.33-2.47-17.41-3.67-4.04-2.79-14.65-7.24-11.99-16.47.95-3.3,7.87-14.06,10.39-16.42,2.49-2.33,8.87-3.18,4.58-7.76-4.48-4.79-9.58-.58-14.48.16-3.96.6-14.75-.07-17.19-3.78-5.72-8.68-2.67-20.72,1.83-29.12,4.22-7.88,7.62-10.24,17.28-9.03,4.79.6,17.7,18.3,21.75,17.07,4.54-1.38,1.85-12.19,1.96-15.02.13-3.34,2.63-16.94,4.84-19.02,6.41-6.03,17.76-.58,23.98,3.1,1.38.82,10.25,6.91,10.57,7.47,5.51,9.83,1.11,9.61-5.12,14.67-1.15.93-1.44,2.48-2.6,3.42-2.41,1.94-11.35,4.65-8.41,10.51,1.39,2.77,9.55,1.06,11.96,1.28.91.08,1.17,1.16,2.06,1.23,4.72.38,14-1.96,15.71,3.21,2.65,8.02,2.96,14.98,1.85,22.89-1.38,9.87-11.47,20.95-16.76,13.48-.81-1.15-3.49-2.38-4.03-2.95-3.53-3.7-5.2-2.38-7.66-4.39-2.09-1.71-3.34-6.52-7.48-5.65-5.15,1.08-4.19,9.9-3.59,13.69.16,1-.99,9.12-.9,10.72.31,5.32-.44,9.01-6.26,10.27Z"/>
      <path class="cls-8" d="M77.88,1660.84c-.34.07-4.01.1-4.87.09-5.88-.05-11.33-2.47-17.41-3.67-4.04-2.79-14.65-7.24-11.99-16.47.95-3.3,7.87-14.06,10.39-16.42,2.49-2.33,8.87-3.18,4.58-7.76-4.48-4.79-9.58-.58-14.48.16-3.96.6-14.75-.07-17.19-3.78-5.72-8.68-2.67-20.72,1.83-29.12,4.22-7.88,7.62-10.24,17.28-9.03,4.79.6,17.7,18.3,21.75,17.07,4.54-1.38,1.85-12.19,1.96-15.02.13-3.34,2.63-16.94,4.84-19.02,6.41-6.03,17.76-.58,23.98,3.1,1.38.82,10.25,6.91,10.57,7.47,5.51,9.83,1.11,9.61-5.12,14.67-1.15.93-1.44,2.48-2.6,3.42-2.41,1.94-11.35,4.65-8.41,10.51,1.39,2.77,9.55,1.06,11.96,1.28.91.08,1.17,1.16,2.06,1.23,4.72.38,14-1.96,15.71,3.21,2.65,8.02,2.96,14.98,1.85,22.89-1.38,9.87-11.47,20.95-16.76,13.48-.81-1.15-3.49-2.38-4.03-2.95-3.53-3.7-5.2-2.38-7.66-4.39-2.09-1.71-3.34-6.52-7.48-5.65-5.15,1.08-4.19,9.9-3.59,13.69.16,1-.99,9.12-.9,10.72.31,5.32-.44,9.01-6.26,10.27Z"/>
    </g>
    <g>
      <path class="cls-9" d="M499.38,519.97c1.4.54,3.2-.15,3.95-.64.66-.43.7-1.15.89-1.31.93-.8,1.89-1.48,2.78-2.38.41-.41,2-3.21,2.53-2.17.09.18-.03,3.17.21,4.11.05.19,1.06,2.61,1.15,2.72.28.33,1.12,1.36,1.78,1.7,2.01,1.05,6.07.77,8.15-.09.45-.19,4.65-2.5,4.85-2.69.49-.5,1.9-1.72,2.24-2.37.8-1.49,5.01-9.11,5.14-9.92.13-.84-.53-1.69.01-2.55-1.1-2.06-5.16-5.19-4.91-4.82.03.05,3.83.37,5.85-.38,1.06-1.08,2.08-2.69,2.69-4.82,1.04-3.62-2.17-12.38-4.85-15.02-2.39-2.35-6.34-4.14-9.72-3.51-.76.14-5.8,4.15-6.81,4.98-.91.76-1.09,2.5-2.27.98-.4-.51-.21-3.13-1.65-4.99-2.26-2.89-5.14-4.38-8.89-3.78-.66.11-4.88,1.8-5.49,2.21-2.09,1.37-4.31,4.1-5.4,6.35-.56,1.16-1.91,4.21-1.88,5.31,0,.18,1.5,2.65,1.75,3.06.3.49,1.44,2.69,1.82,2.93.6.4,1.19.75,1.86,1.07-.57,2.26-2.01,1.37-3.25,1.87-1.76.71-4.68,3.02-5.21,4.87-.21.73-.39,3.43-.26,4.21.82,5.04,6.26,12.41,10.92,14.34.62.26,1.41.58,2.04.73ZM498.1,515.83c-.14-.06-1.42-1.01-1.72-1.23-2.03-1.55-3.3-3.8-5.11-5.8-.68-2.02-3.22-6.32.1-8.84,1.19-.9,6.39-2.85,7.88-3.02,1.47-.16,3.91,1.2,3.61-1.51-.32-2.83-3.19-2.69-5.08-3.7-1.53-.82-5.12-3.85-5-5.78.26-4.51,4.45-7.91,8.2-9.66,3.51-1.65,5.31-1.59,8.36,1.34,1.51,1.45,1.41,10.96,3.14,11.59,1.94.7,3.81-3.77,4.58-4.72.91-1.13,5.31-5.21,6.62-5.36,3.8-.44,6.33,4.41,7.54,7.3.27.64,1.78,5.07,1.74,5.34-.63,4.85-2.1,3.63-5.59,3.78-.64.03-1.15.49-1.79.52-1.34.05-5.16-1.33-5.65,1.48-.23,1.33,3.05,2.85,3.83,3.55.3.27.11.71.4.96,1.54,1.36,5.38,2.95,4.63,5.2-1.16,3.48-2.86,5.98-5.3,8.45-3.04,3.08-9.43,4.32-9.33.34.01-.61-.6-1.74-.64-2.07-.27-2.21-1.19-2.18-1.53-3.52-.28-1.14.53-3.14-1.14-3.91-2.07-.96-4.03,2.36-4.8,3.83-.2.39-2.71,2.92-3.1,3.5-1.27,1.93-2.49,3.02-4.84,1.95Z"/>
      <path class="cls-8" d="M498.1,515.83c-.14-.06-1.42-1.01-1.72-1.23-2.03-1.55-3.3-3.8-5.11-5.8-.68-2.02-3.22-6.32.1-8.84,1.19-.9,6.39-2.85,7.88-3.02,1.47-.16,3.91,1.2,3.61-1.51-.32-2.83-3.19-2.69-5.08-3.7-1.53-.82-5.12-3.85-5-5.78.26-4.51,4.45-7.91,8.2-9.66,3.51-1.65,5.31-1.59,8.36,1.34,1.51,1.45,1.41,10.96,3.14,11.59,1.94.7,3.81-3.77,4.58-4.72.91-1.13,5.31-5.21,6.62-5.36,3.8-.44,6.33,4.41,7.54,7.3.27.64,1.78,5.07,1.74,5.34-.63,4.85-2.1,3.63-5.59,3.78-.64.03-1.15.49-1.79.52-1.34.05-5.16-1.33-5.65,1.48-.23,1.33,3.05,2.85,3.83,3.55.3.27.11.71.4.96,1.54,1.36,5.38,2.95,4.63,5.2-1.16,3.48-2.86,5.98-5.3,8.45-3.04,3.08-9.43,4.32-9.33.34.01-.61-.6-1.74-.64-2.07-.27-2.21-1.19-2.18-1.53-3.52-.28-1.14.53-3.14-1.14-3.91-2.07-.96-4.03,2.36-4.8,3.83-.2.39-2.71,2.92-3.1,3.5-1.27,1.93-2.49,3.02-4.84,1.95Z"/>
    </g>
    <g id="_1yalaO.tif" data-name="1yalaO.tif">
      <g>
        <path class="cls-6" d="M179.91,1517.66c2.44,2.66,4.16,6.41,6.25,9.2,10.53,14.06,21.53,18.8,36.5,26.83,9.57,5.14,19.64,10.36,29.5,14.89,17.82,8.19,25.32,13.96,37.52,29.26,3.36,4.21,4.28,4.15,6.43,9.78.41,1.06,1.07,4.68,1.69,4.95,2,.87,4.6-1.47,6.24-2.04,2.72-.95,3.83.48,5.11-2.96,1.2-3.2.49-5.15.64-8.06.07-1.41.88-2.73.77-4.02-.22-2.61-4.1-7.28-5.2-9.6-2.02-4.25,1.44-5.98,1.94-9.44.28-1.95-.85-3.47-.97-5.07-.41-5.19,2.98-12.35,8.83-12.38,4.94-.03,4.33,4.2,5.23,4.5,4.77,1.56,3.53-4.77,8.72-3.42,10.52,2.74,5.61,9.68,6.8,16.72.42,2.5,2.12,3.55,2.9,5.59.6,1.54,1.09,4.33,1.41,6.05.15.82-.61,1.76.85,1.59l-.13,1.82c-2.57,1.58-1.11,3.48-4.43,4.47-6.21,1.85-12.86,2.8-19.32,2.1l-.62,8.86c-.13,1.94-2.15,5.74-3.67,7.07-2.87,2.51-13.68,4.12-14.53,6.37-.28.73-.85,5.01-.99,6.22-2.6,21.22-8.65,43.12-22.5,60.02-7.03,8.58-16.01,18.78-24.31,26.04-1.38,1.21-5.13,2.81-5.51,4.5-.52,2.3,3.91,5.31,5.11,6.92,1.52,2.04,1.73,5.24,5.11,5.8.39-1.9,3.3-3.53,5.03-4.65,5.77-3.74,10.49-6.16,17.61-5.69,4.03.27,4.77,3.88,7.09,6.34,2.32,5.11-2.29,14.28-6.88,17-4.08,2.43-21.43,2.8-24.36-1.13-1.07-1.44-1.11-3.94-2.14-5.71-.75-1.29-7.58-10.08-8.55-10.92-1.08-.93-5.01-3.15-6.34-2.86-9.12,6.73-20.51,10.38-31.47,12.93-10.55,2.45-22.56,4.44-33.25,5.46-4.86.47-9.62,1.16-14.58.91-1.18.47-2.67,4.48-2.13,5.49,16.4,6.85,5.79,20.36-6.66,22.44l-4.09-.28c-3.08-1.72-7.19-4.29-8.45-7.8-.44-1.22-1.19-5.04-1.04-6.26.32-2.67,3.71-9.46,6.59-10.13,4.09-.96,8.43,2.39,8.13-5.54-5.59-.5-10.27-3.06-15.53-4.63-10.5-3.15-19.19-4.84-28.72-10.87-18.21-11.53-33.54-28.53-38.27-49.96l-1.48-12.8c-1.38-1.12-11.28,1.18-13.13,2.15-.5.26-5.43,3.68-5.62,3.97-.22.33-1.58,4.21-1.69,4.8-.6,3.14-.19,6.95-1.15,10.21,2.16.89,3.55-.6,4.99-.89,3.82-.77,9.09-.73,12.26,1.89,3.86,3.2.74,6.42.25,10.04-.3,2.21.41,4.1-.02,6.35-.54,2.83-3.34,7.98-5.86,9.45-5.01,2.93-18.09,2.21-22.42-2.28l-4.67-5.54.85-12.27c1.4-.06,2.04-1.35,3.17-2,1.4-.81,3.45-.8,4.27-2.94,1.33-3.45.36-10.49,1.4-14.54.95-3.71,3.73-5.09,4.98-8.45l1.57-1.26c3.9-.55,8.56-3.47,12.12-4.2,1.75-.36,8.69-.16,9.37-1,.69-2.57.36-5.3.81-7.91.83-4.9,4.26-14.06,6.06-19.05,4.97-13.79,12.49-31.46,20-43.77.95-1.56,2.17-1.69,3.22-3.14,7.4-10.27,19.64-29.34,23.2-41.05.33-1.09.15-2.28.45-3.41.63-2.36,4.65-7.14,7.39-6.67,2.52.43,2,2.54,3.22,3.64.77.69,2.38,1.07,3.4,1.74,3.02,1.99,2.4,3,7.03,2.89,2.99-.08,3.63-1.31,4.72-3.89,1.48-3.5,1.64-6.07,2.39-9.52,1.11-5.11,4.12-5.94,7.4-1.82,1.42,1.79,3,5.84,4.26,7.39,2.76,3.38,6.86,1.7,9.2-1.23,1.84-2.31,3.82-8.96,5.57-10.28.84-.64,2.08-.58,2.81-1.44l2.27.16ZM178.72,1526.82c-.14-.26-1.5-.82-1.67-.68-.09,2.15-2.12,3.34-3.19,4.93-.48.71-.5,1.83-1.06,2.71-2.06,3.22-7,4.47-10.42,4.7-.77.05-1.45.88-2.35.58-.58-.19-1.19-1.35-1.86-1.84s-1.58-.56-2.16-1.11c-1.06-1-.49-2.96-2.79-2.72-2.14,1.06-1.69,4.92-2.44,6-.35.51-1.55.55-2.11,1.01-1.04.88-1.51,2.49-2.81,3.15-.45.23-5.4,1.54-6.22,1.73-.28.06-4.91-1.35-5.58-1.61-2.3-.89-4.97-2.68-7.3-3.67-.35,1.84-1.73,3.09-2.51,4.72-2.68,5.57-4.81,10.72-7.79,16.07-6.15,11.03-14.13,19.98-20.39,30.54-1.12,1.9-2.22,4.72-3.26,6.56-.49.86-2.22,1.48-2.57,2.44-.65,1.77-.66,6.62-1.3,8.28-.41,1.06-1.47,1.04-1.92,1.8s-.63,2.15-1.09,3.13c-2.27,4.79-4.09,9.44-6.28,14.37-.35.79-1.39,1.66-1.53,2.19-.2.75.34,1.47.23,2.19-.05.3-2.12,3.92-2.54,5.43-3.65,13.05-4.76,23.46-1.64,36.63.15.65.94,1.08,1.07,1.67.67,3.11-.34,2.95,1.83,6.46,2.91,4.7,5.14,10.28,8.22,15.07,1.34,2.09,9.54,11.27,11.46,12.24.65.33,1.47-.11,2.18.63.61.64.57,1.69.9,2.01.37.35,4.92,2.26,6.06,3.07.62.44.64,1.25.96,1.51,8.38,6.76,16.83,8.71,27.05,11.24,2.33.58,6.48,3.33,8.67,3.61,1.09.14,1.66-.57,2.46-.45,1.25.19,3.94,2.23,5.02,2.37,3.13.42,7.51.19,10.88.81,7.44,1.36,9.22,1.34,16.9.23,3.65-.53,9.32-.98,12.74-2.04,1.22-.38,1.43-1.62,2.35-1.73,1.09-.14,1.46.67,2.03.71.8.06,7.29-1.8,8.67-2.13.84-.2,2.03.01,2.57-.24.31-.15.45-1.14,1.54-1.41,2.77-.69,1.52.56,4.27-1.47,2.16-1.59,3.29.54,4.22.42.44-.06,1.18-.98,1.89-1.26,5.21-2.06,7.97-3.22,12.77-5.93,3.26-1.85,5.52-4.39,8.16-6.08,1-.64,3.24-1.19,4.73-2.17,3.73-2.45,4.8-4.06,7.5-7.05,7.66-8.46,15.91-16.01,22.82-25.32,2.32-3.13,3.97-6.69,5.76-9.67,1.5-2.5,1.48-4.8,2.56-7.26,5.87-13.34,10.6-29.62,9.41-44.38-.06-.76.6-2.29.38-3.04-.31-1.07-1.35-1.09-1.5-1.4-.33-.67-.51-4.52-1.61-5.86-.33-.41-1.36-.39-1.59-.75-.26-.42.05-1.63-.41-2.42s-1.51-.82-2.16-1.54c-1.29-1.43-3.02-5.64-4.1-6.68-.89-.86-3.02-2.32-4.09-3.25-2.56-2.23-4.95-4.01-6.95-6.37-2.73-3.23-4.49-1.95-6.07-3.25-.68-.56-.42-1.4-.89-1.89-.7-.73-3.82-1.38-5.47-2.82-.55-.48-.59-1.54-1.32-1.9-1-.48-1.77.02-2.61-.22-1.88-.55-4.26-2.89-6.03-3.73-3.25-1.54-9.47-3.03-12.42-5s-5.49-3.01-8.8-4.71c-5.45-2.8-11.02-6.13-16.45-8.32-.93-.38-4.29-2.12-5.3-2.65-1.88-.99-4.33-3.61-5.19-4.06-.83-.43-1.56.22-2.25-.11-.83-.4-1.22-2.15-1.85-2.68-.74-.62-2.11-.89-3.28-1.84-2.77-2.24-4.72-5.29-6.94-7.84-.49-.57-3.03-1.89-3.39-2.38-.63-.87-.29-2.49-.64-3.19-.29-.58-1.37-.44-1.82-1.08s-.12-1.58-.37-2.02ZM330.34,1567.38c-1.04.8-4.25,2.19-4.98,2.86-1.27,1.15-1.44,6.42-5.07,6.49-1.22.03-3.35-1.57-3.77-2.65-.81-2.05,1.91-6.81-1.8-8.24-.36.06-1.42,1.74-1.56,2.17-.29.88-.3,5.91-.23,7.06.08,1.32,1.09,5.51.97,6-.11.44-1.24.03-1.67.55-1.25,1.5-.51,5.21.67,6.6.42.5,1.19.48,1.57.87,1.01,1.02,2.2,2.84,3.61,3.64.19.11,2.74.36,2.97.29,3.12-.92,4.25-.7,7.28-1.23,1.65-.29,3.55-1.79,5.43-1.86l-.19-5.93c-.41-.69-8.02-1.2-8.59-4.09-.14-.69.98-3.38,1.36-4.14.44-.89,1.24-1.29,1.62-2.07.96-2.01,1.59-4.25,2.39-6.33ZM57.03,1689.5c.63-1.57-1.85-2.81-3.07-2.73-1.07.07-3.53,1.33-4.96,1.6-1.67.32-5.31.06-6.51.35-.19.05-3.33,1.66-3.49,1.78-.28.2-3.43,5.64-3.48,5.98-.19,1.22,1.04,1.92,1.07,2.83s-.89,1.81-.32,2.9c.12.24,4.3,2.77,4.59,2.86s5.21,1.01,5.67,1.06c2.92.29,4.59-1.52,7.15-2.33,0-2.22,1.04-4.26.94-6.44s-2.26-4.35-1.85-6.1c.33-1.4,2.9-2.15,4.26-1.77ZM259.09,1734.74c-2.06,3.22,1.75,5.29,4.61,5.09,1.8-.13,4.81-.94,6.68-1.17,2.59-.32,3.95.78,6.12-1.8,3.08-3.67,2.09-7.6.4-11.55-3.38,1.29-8.15,1.63-11.09,3.63-1.33.91-2.6,2.96-3.8,4.02-.62.55-2.35.89-2.92,1.77ZM148.69,1754.06c-1.25-.96-2.68-2.98-4.56-2.23-1.14.46-3.08,4.64-2.68,5.81.22.64.99.72,1.19,1.15.51,1.09,1.14,3.95,2.29,4.33l8.82-1.92c1.67-2.35,4.68-2.94,3.3-6.31-1.86,1.04-3.02-.42-3.85-.55-1.53-.24-1.37,2.15-4.51-.27Z"/>
        <path class="cls-3" d="M178.72,1526.82c.25.44-.09,1.37.37,2.02s1.53.5,1.82,1.08c.35.7,0,2.33.64,3.19.36.49,2.9,1.82,3.39,2.38,2.21,2.56,4.17,5.6,6.94,7.84,1.17.95,2.54,1.22,3.28,1.84.63.53,1.02,2.28,1.85,2.68.69.33,1.42-.31,2.25.11.86.45,3.32,3.07,5.19,4.06,1.01.53,4.37,2.27,5.3,2.65,5.42,2.19,11,5.52,16.45,8.32,3.31,1.7,5.79,2.7,8.8,4.71s9.17,3.46,12.42,5c1.78.84,4.15,3.18,6.03,3.73.84.24,1.62-.26,2.61.22.73.35.77,1.41,1.32,1.9,1.64,1.44,4.77,2.09,5.47,2.82.47.49.21,1.32.89,1.89,1.58,1.29,3.33.01,6.07,3.25,2,2.37,4.39,4.14,6.95,6.37,1.07.94,3.21,2.39,4.09,3.25,1.08,1.04,2.81,5.25,4.1,6.68.65.71,1.72.78,2.16,1.54s.15,2,.41,2.42c.22.36,1.25.35,1.59.75,1.11,1.34,1.29,5.19,1.61,5.86.15.31,1.18.34,1.5,1.4.22.75-.44,2.28-.38,3.04,1.2,14.77-3.54,31.04-9.41,44.38-1.08,2.45-1.06,4.75-2.56,7.26-1.79,2.98-3.44,6.55-5.76,9.67-6.91,9.32-15.16,16.87-22.82,25.32-2.7,2.98-3.78,4.6-7.5,7.05-1.49.98-3.73,1.53-4.73,2.17-2.64,1.69-4.89,4.23-8.16,6.08-4.8,2.72-7.56,3.88-12.77,5.93-.71.28-1.44,1.21-1.89,1.26-.92.12-2.05-2.02-4.22-.42-2.75,2.03-1.5.78-4.27,1.47-1.09.27-1.23,1.26-1.54,1.41-.54.25-1.73.04-2.57.24-1.39.33-7.88,2.19-8.67,2.13-.58-.04-.94-.85-2.03-.71-.92.11-1.14,1.36-2.35,1.73-3.43,1.06-9.09,1.51-12.74,2.04-7.68,1.11-9.46,1.12-16.9-.23-3.38-.61-7.75-.39-10.88-.81-1.08-.14-3.77-2.18-5.02-2.37-.8-.12-1.38.59-2.46.45-2.19-.28-6.34-3.04-8.67-3.61-10.22-2.53-18.67-4.48-27.05-11.24-.32-.26-.34-1.07-.96-1.51-1.14-.8-5.69-2.71-6.06-3.07-.34-.32-.29-1.38-.9-2.01-.71-.74-1.52-.3-2.18-.63-1.92-.97-10.12-10.15-11.46-12.24-3.08-4.79-5.31-10.37-8.22-15.07-2.17-3.51-1.17-3.35-1.83-6.46-.13-.59-.92-1.02-1.07-1.67-3.11-13.17-2.01-23.58,1.64-36.63.42-1.51,2.5-5.13,2.54-5.43.11-.72-.43-1.44-.23-2.19.14-.53,1.18-1.39,1.53-2.19,2.19-4.93,4.01-9.59,6.28-14.37.46-.98.63-2.35,1.09-3.13s1.51-.74,1.92-1.8c.64-1.66.65-6.51,1.3-8.28.35-.96,2.08-1.58,2.57-2.44,1.04-1.84,2.14-4.66,3.26-6.56,6.26-10.57,14.24-19.51,20.39-30.54,2.98-5.35,5.11-10.5,7.79-16.07.78-1.63,2.16-2.88,2.51-4.72,2.33.99,5,2.78,7.3,3.67.67.26,5.3,1.67,5.58,1.61.82-.18,5.77-1.5,6.22-1.73,1.3-.66,1.77-2.27,2.81-3.15.55-.47,1.75-.5,2.11-1.01.75-1.08.29-4.94,2.44-6,2.29-.24,1.72,1.72,2.79,2.72.58.55,1.52.65,2.16,1.11s1.28,1.64,1.86,1.84c.89.3,1.58-.53,2.35-.58,3.42-.23,8.37-1.48,10.42-4.7.56-.87.58-1.99,1.06-2.71,1.06-1.59,3.1-2.78,3.19-4.93.18-.14,1.53.43,1.67.68ZM153.46,1588.07c.46.56.28,2.01.8,2.94,1.43,2.58,4.54.41,4.71-1.94-.75-1.27-.44-2.77-.73-4.09s-.79-2.89-1.16-4.54c-.24-1.07-1.54-2.25-1.73-3.63-.27-2.03.98-6.11.85-8.41-.05-.93-1.11-2.2-1-3.38.09-.97,1.1-1.55,1.08-3.07-.02-1.1-1.05-5.89-2.48-5.86-1.24.03-4.19,3.21-4.17,4.36.02.76.94,1.65.97,2.48.07,2.14-.48,5.49-.42,7.67.04,1.2.72,2.38.69,3.3-.04,1.22-1.13,1.86-1.04,2.97.09,1.05,1.22,1.7,1.47,2.6.59,2.13-.25,5.55.36,7.35.34,1,1.39.75,1.79,1.24ZM170.12,1558.21c-.87-1-3.75-1.81-4.64-.46-.4.61-.25,1.59-.51,2.35-.17.49-.79.87-.88,1.46-.11.69.32,1.49.29,2.29-.03.67-.49,1.27-.4,2.06.12,1.1,1.82,1.44,2.18,2.41.29.78-.33,1.59-.15,2.61.23,1.31,1.64,2.81,1.94,3.92.17.66-.29,1.32-.13,1.8,1.04,3.03,2.94,8.88,7.17,7.72,2.55-1.47.58-3,.36-4.45-.72-4.75-3.38-8.94-4.1-13.07-.38-2.15.31-7.01-1.11-8.64ZM187.28,1560.79c-3.15-3.72-8-3.06-7.34,2.76.2,1.75,2.71,1.88,3.68,2.75,1.73,1.56,3.41,4.64,5.76,6.1.97.6,2.41.53,3.32,1.38.74.7.69,1.86,1.07,2.27.4.43,1.41.48,2.07,1,1.56,1.24.76,3.15,3.61,3.06,1.87-.06,3.75-1.22,4.11-3.15.4-2.17-.92-1.7-1.5-2.32-4.69-4.95-10.28-8.54-14.78-13.85ZM138.74,1556.91c-1.73-1.17-3.24,1.06-3.92,2.41-3.15,6.24-6.43,12.12-9.65,18.35-.96,1.86-1.53,3.4-.91,5.49,6.4.9,7.76-7.94,10.32-12.34.94-1.61,3.24-3.86,4-5.22.28-.51,1.88-4.81,1.89-5.24.01-.59-1.45-3.26-1.73-3.45ZM198.74,1599.91c-1.27-1.53-3.66-.88-5.21-.11-.43.21-7.38,5.27-7.7,5.62-.74.8-.95,2.56-1.82,3.56-.77.9-2.14,1.08-2.72,2.21l.12,4.23c2.12,1.08,5.16,2.18,7.04.13,1.41-1.54.39-2.05.51-3.44.18-2.15,2.47-3.39,3.91-4.73.59-.55.75-1.5,1.16-1.86,1.13-.99,7.64-2.07,4.72-5.61ZM134.28,1617.58c1.72,1.91,8.72-.68,11.79-.23,2.86.42,6.16,4.3,8.13,4.43,1.5.1,4.09-1.93,4.1-3.59,0-.51-2.27-3.78-2.75-3.96-.75-.28-1.71-.07-2.51-.38-4.11-1.6-9.38-2.51-13.83-1.45-1.7.41-6.77,3.14-4.93,5.17ZM186.23,1625.51c-1.19,1.05-1.74,4.9-2.65,6.33.57,2.13,1.59,4.55,3.53,5.73,1.66,1.01,7.15,2.29,8.64,1.05.56-.46,0-1.17.18-1.71.32-.92,2.23-1.97,2.44-3.63.14-1.08-.6-1.66-.66-2.39s.48-1.35.43-2.06c-.19-2.73-5.97-4.75-8.4-4.45-.36.04-3.37,1-3.51,1.12ZM164.2,1643.37c.54-.34,3.86-4.33,4.05-4.95.93-2.94-3.03-8.7-5.66-9.84-1-.43-5.14-.28-6.07.2-2.21,1.14-3.93,11.22-.63,12.91,1.62.83,6.75,2.64,8.3,1.67ZM198.34,1651.21c1.67-2.19,1.43-4.57,1.51-7.21-5.12-4.04-6.17,5.38-8.32,7.23-.23.2-4.83,3.04-5.15,3.15-.35.13-3.62.84-3.81.8-.34-.07-6.11-2.31-6.43-2.52-.75-.49-.82-1.26-1.26-1.57-1.43-.99-4.69-3.34-6.34-2.5-2.02,2.66-1.55,5.25,1.01,7.25,2.79,2.18,6.78,3.61,10.06,4.55.63.18.96,1.18,2.37,1.23.7.03,4.1-.93,4.92-1.24,3.7-1.42,9.09-6.1,11.44-9.17Z"/>
        <path class="cls-3" d="M330.34,1567.38c-.8,2.08-1.43,4.32-2.39,6.33-.37.78-1.17,1.18-1.62,2.07-.38.76-1.5,3.45-1.36,4.14.57,2.89,8.18,3.4,8.59,4.09l.19,5.93c-1.88.07-3.78,1.57-5.43,1.86-3.03.53-4.16.31-7.28,1.23-.23.07-2.78-.19-2.97-.29-1.41-.8-2.6-2.62-3.61-3.64-.38-.38-1.14-.37-1.57-.87-1.18-1.39-1.92-5.1-.67-6.6.44-.52,1.56-.12,1.67-.55.12-.49-.89-4.68-.97-6-.07-1.15-.06-6.18.23-7.06.14-.43,1.2-2.11,1.56-2.17,3.71,1.43,1,6.19,1.8,8.24.43,1.09,2.55,2.68,3.77,2.65,3.63-.08,3.8-5.35,5.07-6.49.74-.67,3.94-2.05,4.98-2.86Z"/>
        <path class="cls-3" d="M57.03,1689.5c-1.36-.38-3.93.37-4.26,1.77-.41,1.74,1.74,3.85,1.85,6.1s-.95,4.23-.94,6.44c-2.56.81-4.22,2.62-7.15,2.33-.46-.05-5.39-.97-5.67-1.06s-4.47-2.62-4.59-2.86c-.57-1.1.35-2.03.32-2.9-.03-.92-1.26-1.61-1.07-2.83.05-.34,3.2-5.78,3.48-5.98.16-.12,3.3-1.73,3.49-1.78,1.2-.29,4.84-.03,6.51-.35,1.43-.27,3.89-1.53,4.96-1.6,1.22-.08,3.7,1.16,3.07,2.73Z"/>
        <path class="cls-3" d="M259.09,1734.74c.57-.88,2.3-1.22,2.92-1.77,1.2-1.07,2.47-3.12,3.8-4.02,2.94-2.01,7.71-2.34,11.09-3.63,1.68,3.95,2.68,7.88-.4,11.55-2.17,2.58-3.53,1.48-6.12,1.8-1.87.23-4.88,1.04-6.68,1.17-2.87.2-6.67-1.87-4.61-5.09Z"/>
        <path class="cls-3" d="M148.69,1754.06c3.14,2.42,2.98.04,4.51.27.83.13,1.99,1.59,3.85.55,1.38,3.37-1.63,3.96-3.3,6.31l-8.82,1.92c-1.15-.37-1.78-3.24-2.29-4.33-.2-.43-.97-.52-1.19-1.15-.4-1.17,1.54-5.35,2.68-5.81,1.87-.75,3.31,1.27,4.56,2.23Z"/>
        <path class="cls-6" d="M198.34,1651.21c-2.35,3.07-7.74,7.75-11.44,9.17-.82.32-4.22,1.27-4.92,1.24-1.41-.05-1.74-1.05-2.37-1.23-3.28-.94-7.26-2.37-10.06-4.55-2.56-2-3.04-4.59-1.01-7.25,1.65-.84,4.91,1.51,6.34,2.5.44.31.51,1.08,1.26,1.57.32.21,6.09,2.45,6.43,2.52.19.04,3.46-.67,3.81-.8.32-.12,4.92-2.96,5.15-3.15,2.15-1.85,3.2-11.27,8.32-7.23-.08,2.64.16,5.02-1.51,7.21Z"/>
        <path class="cls-6" d="M153.46,1588.07c-.4-.49-1.45-.24-1.79-1.24-.61-1.8.23-5.22-.36-7.35-.25-.9-1.38-1.55-1.47-2.6-.09-1.11,1-1.76,1.04-2.97.03-.92-.66-2.1-.69-3.3-.06-2.17.49-5.53.42-7.67-.03-.83-.95-1.72-.97-2.48-.02-1.15,2.93-4.34,4.17-4.36,1.43-.03,2.46,4.76,2.48,5.86.02,1.51-.98,2.09-1.08,3.07-.11,1.18.95,2.45,1,3.38.13,2.3-1.12,6.38-.85,8.41.18,1.38,1.49,2.56,1.73,3.63.37,1.66.87,3.26,1.16,4.54s-.03,2.82.73,4.09c-.18,2.35-3.29,4.52-4.71,1.94-.51-.93-.34-2.39-.8-2.94Z"/>
        <path class="cls-6" d="M187.28,1560.79c4.49,5.31,10.08,8.89,14.78,13.85.59.62,1.9.15,1.5,2.32-.36,1.93-2.24,3.09-4.11,3.15-2.85.09-2.05-1.82-3.61-3.06-.66-.52-1.66-.57-2.07-1-.38-.41-.33-1.57-1.07-2.27-.91-.85-2.35-.78-3.32-1.38-2.35-1.46-4.03-4.54-5.76-6.1-.97-.88-3.49-1-3.68-2.75-.65-5.82,4.19-6.48,7.34-2.76Z"/>
        <path class="cls-6" d="M164.2,1643.37c-1.55.97-6.68-.84-8.3-1.67-3.31-1.69-1.58-11.77.63-12.91.93-.48,5.07-.64,6.07-.2,2.63,1.14,6.58,6.9,5.66,9.84-.19.62-3.51,4.61-4.05,4.95Z"/>
        <path class="cls-6" d="M170.12,1558.21c1.42,1.63.73,6.49,1.11,8.64.72,4.13,3.39,8.32,4.1,13.07.22,1.46,2.19,2.98-.36,4.45-4.23,1.16-6.14-4.68-7.17-7.72-.16-.48.31-1.13.13-1.8-.29-1.11-1.71-2.61-1.94-3.92-.18-1.02.43-1.84.15-2.61-.36-.97-2.05-1.31-2.18-2.41-.09-.79.37-1.38.4-2.06.04-.8-.4-1.6-.29-2.29.1-.59.72-.96.88-1.46.26-.76.11-1.74.51-2.35.89-1.36,3.77-.54,4.64.46Z"/>
        <path class="cls-6" d="M186.23,1625.51c.14-.12,3.14-1.08,3.51-1.12,2.43-.3,8.21,1.72,8.4,4.45.05.71-.48,1.34-.43,2.06s.79,1.31.66,2.39c-.21,1.66-2.12,2.71-2.44,3.63-.19.54.38,1.24-.18,1.71-1.49,1.24-6.98-.04-8.64-1.05-1.94-1.18-2.96-3.6-3.53-5.73.91-1.43,1.46-5.29,2.65-6.33Z"/>
        <path class="cls-6" d="M138.74,1556.91c.28.19,1.74,2.86,1.73,3.45-.01.44-1.6,4.74-1.89,5.24-.76,1.36-3.06,3.6-4,5.22-2.56,4.4-3.92,13.24-10.32,12.34-.63-2.09-.05-3.63.91-5.49,3.22-6.23,6.5-12.11,9.65-18.35.68-1.34,2.19-3.58,3.92-2.41Z"/>
        <path class="cls-6" d="M134.28,1617.58c-1.83-2.03,3.23-4.77,4.93-5.17,4.45-1.06,9.71-.15,13.83,1.45.8.31,1.76.1,2.51.38.48.18,2.76,3.45,2.75,3.96-.01,1.66-2.6,3.7-4.1,3.59-1.96-.13-5.27-4.01-8.13-4.43-3.08-.45-10.07,2.14-11.79.23Z"/>
        <path class="cls-6" d="M198.74,1599.91c2.93,3.54-3.58,4.62-4.72,5.61-.41.36-.57,1.31-1.16,1.86-1.44,1.35-3.73,2.59-3.91,4.73-.12,1.39.9,1.89-.51,3.44-1.88,2.05-4.92.95-7.04-.13l-.12-4.23c.58-1.13,1.95-1.32,2.72-2.21.86-1,1.08-2.76,1.82-3.56.32-.35,7.27-5.41,7.7-5.62,1.55-.77,3.95-1.42,5.21.11Z"/>
      </g>
    </g>
    <path class="cls-10" d="M128.46,1640.23c22.4-3.83,23.61,20.87,7.78,22.76-6.43.77-14.89.74-17.76-6.27-3.12-7.62,2.28-15.17,9.98-16.49Z"/>
    <path class="cls-10" d="M220.12,1620.4c22.4-3.83,23.61,20.87,7.78,22.76-6.43.77-14.89.74-17.76-6.27-3.12-7.62,2.28-15.17,9.98-16.49Z"/>
  </g>
</svg>